<svg xmlns="http://www.w3.org/2000/svg" viewBox="0 0 85 90"><defs><style>.cls-1{fill:#ffdc00;}.cls-2{fill:#fff;}</style></defs><title>Asset 1</title><g id="Layer_2" data-name="Layer 2"><g id="Layer_1-2" data-name="Layer 1"><path class="cls-1" d="M85,64.14A44.6,44.6,0,0,1,0,45,44.8,44.8,0,0,1,44.61,0a45.44,45.44,0,0,1,7.24.59,36.89,36.89,0,0,0-22,54A36.28,36.28,0,0,0,85,64.14Z"/><path class="cls-2" d="M44.61,84.76A39.63,39.63,0,0,1,5.2,45H8.66a36.15,36.15,0,0,0,36,36.26Z"/><polygon class="cls-1" points="59.26 37.2 74.13 39.67 59.26 42.15 56.81 57.15 54.36 42.15 39.48 39.68 54.36 37.2 56.81 22.2 59.26 37.2"/><polygon class="cls-1" points="76.61 17.92 84.05 19.15 76.61 20.39 75.39 27.89 74.16 20.39 66.72 19.15 74.16 17.92 75.39 10.41 76.61 17.92"/></g></g></svg>