<svg xmlns="http://www.w3.org/2000/svg" viewBox="0 0 120 100"><defs><style>.cls-1{fill:#ffc800;}.cls-2{fill:#ffdc00;}.cls-3{fill:#fff;}.cls-4{fill:#00b8ec;}</style></defs><title>Asset 6</title><g id="Layer_2" data-name="Layer 2"><g id="Layer_1-2" data-name="Layer 1"><path class="cls-1" d="M59.82,37.34c0,13.22-10.47,23.94-23.37,23.94S13.08,50.56,13.08,37.34,23.55,13.4,36.45,13.4,59.82,24.12,59.82,37.34Z"/><path class="cls-2" d="M56.2,54.35a26.4,26.4,0,0,0,4.49-7.93A38.76,38.76,0,0,1,68,56.05,37.09,37.09,0,0,1,56.2,54.35Z"/><path class="cls-2" d="M45.24,62.2a24.35,24.35,0,0,0,4.09-1.93A27.65,27.65,0,0,0,53,57.62a41.71,41.71,0,0,1,1.62,12.09A39.5,39.5,0,0,1,45.24,62.2Z"/><path class="cls-2" d="M31.94,63.4a26.37,26.37,0,0,0,7.58.22c.83-.12,1.38-.24,1.38-.24a39.49,39.49,0,0,1-4.5,11.3A39.9,39.9,0,0,1,31.94,63.4Z"/><path class="cls-2" d="M19.84,57.58a25.41,25.41,0,0,0,7.75,4.59,38,38,0,0,1-9.4,7.49A40.13,40.13,0,0,1,19.84,57.58Z"/><path class="cls-2" d="M12.19,46.35a25.17,25.17,0,0,0,1.88,4.19,29.25,29.25,0,0,0,2.58,3.79A39.05,39.05,0,0,1,4.85,56,40,40,0,0,1,12.19,46.35Z"/><path class="cls-2" d="M11,32.72a26.59,26.59,0,0,0-.37,4.6c-.07,1.15.15,2.3.16,3.16S11,41.9,11,41.9A37.5,37.5,0,0,1,0,37.3,38,38,0,0,1,11,32.72Z"/><path class="cls-2" d="M16.69,20.33a6.7,6.7,0,0,0-.87,1.13,25.4,25.4,0,0,0-3.61,6.81,38.51,38.51,0,0,1-7.3-9.63A36.65,36.65,0,0,1,16.69,20.33Z"/><path class="cls-2" d="M27.65,12.48a26.21,26.21,0,0,0-7.78,4.58A41.68,41.68,0,0,1,18.25,5,39.74,39.74,0,0,1,27.65,12.48Z"/><path class="cls-2" d="M41,11.28a25.72,25.72,0,0,0-7.58-.21c-.83.11-1.38.23-1.38.23A39.45,39.45,0,0,1,36.49,0,40.47,40.47,0,0,1,41,11.28Z"/><path class="cls-2" d="M53.06,17.1a25.64,25.64,0,0,0-7.75-4.59A38.19,38.19,0,0,1,54.71,5,40.13,40.13,0,0,1,53.06,17.1Z"/><path class="cls-2" d="M60.71,28.33a25.54,25.54,0,0,0-1.88-4.19,29,29,0,0,0-2.59-3.78A38.76,38.76,0,0,1,68.05,18.7,40.5,40.5,0,0,1,60.71,28.33Z"/><path class="cls-2" d="M61.88,42a24.71,24.71,0,0,0,.37-4.6c.08-1.15-.14-2.3-.15-3.16s-.23-1.42-.24-1.42a37.58,37.58,0,0,1,11,4.61A38.58,38.58,0,0,1,61.88,42Z"/><path class="cls-2" d="M59.81,37.34c0,13.23-10.45,23.93-23.36,23.93h0c-12.88,0-23.33-10.72-23.33-23.93S23.53,13.41,36.41,13.4h0C49.36,13.4,59.81,24.12,59.81,37.34Z"/><path class="cls-2" d="M53,57.62a42.17,42.17,0,0,1,1.62,12.1,39.54,39.54,0,0,1-9.4-7.52,24.69,24.69,0,0,0,4.08-1.93A25.55,25.55,0,0,0,53,57.62Z"/><path class="cls-2" d="M53.05,17.1a25.65,25.65,0,0,0-7.74-4.59A38.74,38.74,0,0,1,54.7,5,39.16,39.16,0,0,1,53.05,17.1Z"/><path class="cls-2" d="M68,56a36.71,36.71,0,0,1-11.78-1.69,26.32,26.32,0,0,0,4.47-7.93A38.66,38.66,0,0,1,68,56Z"/><path class="cls-2" d="M58.83,24.14a28,28,0,0,0-2.59-3.78A38.76,38.76,0,0,1,68.05,18.7a40.66,40.66,0,0,1-7.34,9.64A25.21,25.21,0,0,0,58.83,24.14Z"/><path class="cls-2" d="M62.26,37.37c.06-1.17-.14-2.3-.16-3.18s-.23-1.42-.23-1.42a38.18,38.18,0,0,1,11,4.61,37.65,37.65,0,0,1-11,4.58A25.83,25.83,0,0,0,62.26,37.37Z"/><path class="cls-3" d="M57.13,37.34H54.7A18.51,18.51,0,0,0,36.45,18.63l0-2.49h0C47.85,16.14,57.13,25.65,57.13,37.34Z"/><path class="cls-1" d="M50,37.34a13.66,13.66,0,0,1-13.5,13.83h0a13.84,13.84,0,0,1,0-27.67h0A13.68,13.68,0,0,1,50,37.34Z"/><path class="cls-4" d="M120,79.12a21.28,21.28,0,0,1-5.81,14.76,19.33,19.33,0,0,1-14,6.12H17.23C7.72,100,0,91.87,0,81.86S7.72,63.73,17.23,63.73A16.35,16.35,0,0,1,25.63,66,11.82,11.82,0,0,1,25,62.25a10.78,10.78,0,0,1,10.52-11,10.26,10.26,0,0,1,8.38,4.43C44.8,41.8,55.27,30.73,68.41,29.81c.6-.06,1.2-.08,1.81-.08,14.6,0,26.44,12.48,26.44,27.85,0,.35,0,.68,0,1a19.1,19.1,0,0,1,3.56-.35C111.12,58.26,120,67.61,120,79.12Z"/><path class="cls-3" d="M90.25,57.65H87.67c0-10.17-7.86-18.44-17.51-18.44a14.59,14.59,0,0,0-1.63.08l-.23-2.71q.92-.09,1.86-.09C81.24,36.49,90.25,46,90.25,57.65Z"/></g></g></svg>