<svg xmlns="http://www.w3.org/2000/svg" viewBox="0 0 100 100"><defs><style>.cls-1{fill:#ffc800;}.cls-2{fill:#ffdc00;}.cls-3{fill:#fff;}</style></defs><title>Asset 5</title><g id="Layer_2" data-name="Layer 2"><g id="Layer_1-2" data-name="Layer 1"><path class="cls-1" d="M82.05,50A32.05,32.05,0,1,1,50,18,32.05,32.05,0,0,1,82.05,50Z"/><path class="cls-2" d="M77.1,72.78c1.59-1.52,4.92-6.89,6.15-10.63a52.18,52.18,0,0,1,10,12.9A52.44,52.44,0,0,1,77.1,72.78Z"/><path class="cls-2" d="M62.07,83.28a34.09,34.09,0,0,0,5.6-2.58,37.82,37.82,0,0,0,5.07-3.55A54.7,54.7,0,0,1,75,93.35,54,54,0,0,1,62.07,83.28Z"/><path class="cls-2" d="M43.81,84.89c7.79.94,8.2.34,10.4.29,1.14-.15,1.9-.32,1.9-.32A52.5,52.5,0,0,1,49.94,100,52.87,52.87,0,0,1,43.81,84.89Z"/><path class="cls-2" d="M27.22,77.1c1.52,1.59,6.89,4.92,10.63,6.15a51.78,51.78,0,0,1-12.9,10A52.62,52.62,0,0,1,27.22,77.1Z"/><path class="cls-2" d="M16.72,62.06a33.74,33.74,0,0,0,2.58,5.61,37.82,37.82,0,0,0,3.55,5.07A54.7,54.7,0,0,1,6.65,75,54.1,54.1,0,0,1,16.72,62.06Z"/><path class="cls-2" d="M15.11,43.81A33.28,33.28,0,0,0,14.6,50c-.1,1.55.2,3.08.22,4.24s.32,1.9.32,1.9A52.42,52.42,0,0,1,0,49.94,52.87,52.87,0,0,1,15.11,43.81Z"/><path class="cls-2" d="M22.9,27.22a9.68,9.68,0,0,0-1.2,1.51,33.63,33.63,0,0,0-4.95,9.12A51.78,51.78,0,0,1,6.73,25,52.15,52.15,0,0,1,22.9,27.22Z"/><path class="cls-2" d="M37.94,16.72a35.86,35.86,0,0,0-10.68,6.13A54.7,54.7,0,0,1,25,6.65,54.39,54.39,0,0,1,37.94,16.72Z"/><path class="cls-2" d="M56.19,15.11c-7.79-.94-8.2-.34-10.4-.29-1.14.15-1.9.32-1.9.32A52,52,0,0,1,50.06,0,53.39,53.39,0,0,1,56.19,15.11Z"/><path class="cls-2" d="M72.78,22.9c-1.5-1.57-6.86-4.91-10.63-6.15a52.18,52.18,0,0,1,12.9-10A52.62,52.62,0,0,1,72.78,22.9Z"/><path class="cls-2" d="M83.28,37.94a33.74,33.74,0,0,0-2.58-5.61,36.87,36.87,0,0,0-3.55-5.07A54.7,54.7,0,0,1,93.35,25,54.3,54.3,0,0,1,83.28,37.94Z"/><path class="cls-2" d="M84.89,56.19A33.28,33.28,0,0,0,85.4,50c.1-1.55-.2-3.08-.22-4.24s-.31-1.9-.32-1.9A52.5,52.5,0,0,1,100,50.06,53.39,53.39,0,0,1,84.89,56.19Z"/><path class="cls-2" d="M82.05,50A32,32,0,0,1,50,82.05h0a32.06,32.06,0,0,1,0-64.11h0A32.05,32.05,0,0,1,82.05,50Z"/><path class="cls-2" d="M72.75,77.15A55.28,55.28,0,0,1,75,93.35a54.06,54.06,0,0,1-12.9-10.06,33.92,33.92,0,0,0,5.6-2.59A36.18,36.18,0,0,0,72.75,77.15Z"/><path class="cls-2" d="M72.77,22.9c-1.49-1.56-6.86-4.92-10.62-6.15A53,53,0,0,1,75,6.72,51.45,51.45,0,0,1,72.77,22.9Z"/><path class="cls-2" d="M93.27,75a51.44,51.44,0,0,1-16.16-2.27c1.58-1.52,4.92-6.88,6.13-10.62A51.85,51.85,0,0,1,93.27,75Z"/><path class="cls-2" d="M80.7,32.32a39.28,39.28,0,0,0-3.55-5.06A54.11,54.11,0,0,1,93.35,25a54.69,54.69,0,0,1-10.06,12.9A34,34,0,0,0,80.7,32.32Z"/><path class="cls-2" d="M85.4,50c.09-1.56-.19-3.08-.21-4.26-.17-1.13-.32-1.9-.32-1.9A52.73,52.73,0,0,1,100,50.06a53,53,0,0,1-15.11,6.13A33.31,33.31,0,0,0,85.4,50Z"/><path class="cls-3" d="M78.37,50H75A25.08,25.08,0,0,0,50,25l0-3.33h0A28.41,28.41,0,0,1,78.37,50Z"/><path class="cls-1" d="M68.52,50A18.52,18.52,0,0,1,50,68.52h0a18.53,18.53,0,0,1,0-37h0A18.53,18.53,0,0,1,68.52,50Z"/></g></g></svg>