<svg xmlns="http://www.w3.org/2000/svg" viewBox="0 0 120 100"><defs><style>.cls-1{fill:#ffdc00;}.cls-2{fill:#fff;}.cls-3{fill:#00b8ec;}</style></defs><title>Asset 7</title><g id="Layer_2" data-name="Layer 2"><g id="Layer_1-2" data-name="Layer 1"><path class="cls-1" d="M33.2,59.28a28.56,28.56,0,0,1-8.7-38.73,27.1,27.1,0,0,1,31.19-12,33.93,33.93,0,0,0-4.38-3.34,33.05,33.05,0,0,0-46.2,10.9A34.88,34.88,0,0,0,.35,39.24,34.28,34.28,0,0,0,15.74,63.5a32.83,32.83,0,0,0,35.95-.24A26.7,26.7,0,0,1,33.2,59.28Zm-15.39.83C4,51.23-.24,32.46,8.42,18.27l2.21,1.41a28.13,28.13,0,0,0,8.56,38.16Z"/><path class="cls-2" d="M10.63,19.68,8.42,18.27C-.24,32.46,4,51.23,17.81,60.11l1.38-2.27A28.13,28.13,0,0,1,10.63,19.68Z"/><polygon class="cls-1" points="108.82 35.06 120 36.95 108.82 38.84 106.98 50.3 105.14 38.84 93.96 36.95 105.14 35.06 106.98 23.61 108.82 35.06"/><polygon class="cls-1" points="91.83 18.9 97.42 19.84 91.83 20.79 90.91 26.52 89.99 20.79 84.4 19.84 89.99 18.9 90.91 13.17 91.83 18.9"/><path class="cls-3" d="M120,79.12a21.28,21.28,0,0,1-5.81,14.76,19.31,19.31,0,0,1-14,6.12H17.26C7.76,100,0,91.87,0,81.86S7.76,63.73,17.26,63.73A16.36,16.36,0,0,1,25.67,66,11.55,11.55,0,0,1,25,62.25a10.77,10.77,0,0,1,10.51-11,10.28,10.28,0,0,1,8.38,4.43c.91-13.84,11.38-24.91,24.52-25.83a18,18,0,0,1,1.81-.08c14.59,0,26.43,12.48,26.43,27.85,0,.35,0,.68,0,1a19,19,0,0,1,3.56-.35C111.12,58.26,120,67.61,120,79.12Z"/><path class="cls-2" d="M90.26,57.65H87.68c0-10.17-7.85-18.44-17.51-18.44a14.53,14.53,0,0,0-1.62.08l-.24-2.71q.93-.09,1.86-.09C81.25,36.49,90.26,46,90.26,57.65Z"/></g></g></svg>